<?xml version="1.0" encoding="UTF-8"?>
<svg id="Layer_1" xmlns="http://www.w3.org/2000/svg" xmlns:xlink="http://www.w3.org/1999/xlink" version="1.1" viewBox="0 0 800 800">
  <!-- Generator: Adobe Illustrator 29.7.1, SVG Export Plug-In . SVG Version: 2.1.1 Build 8)  -->
  <defs>
    <style>
      .st0 {
        fill: url(#linear-gradient);
      }
    </style>
    <linearGradient id="linear-gradient" x1="118.11" y1="591.82" x2="683.79" y2="26.13" gradientUnits="userSpaceOnUse">
      <stop offset="0" stop-color="#ff1659"/>
      <stop offset="1" stop-color="#9d3695"/>
    </linearGradient>
  </defs>
  <path class="st0" d="M564.44,44.44c-80.88,0-133.77,40.44-164.44,76-30.66-35.56-83.55-76-164.44-76C94.67,44.44,0,176.89,0,300.44c0,250.23,392.89,455.11,400,455.11s400-204.89,400-455.11c0-123.56-94.67-256-235.56-256ZM623.78,271.26l-166.67,166.66c-6.25,6.25-14.73,9.76-23.57,9.76h0c-8.84,0-17.32-3.51-23.57-9.76l-59.76-59.77-93.1,93.1c-6.51,6.51-15.04,9.76-23.57,9.76s-17.06-3.25-23.57-9.76c-13.02-13.02-13.02-34.12,0-47.14l116.67-116.67c6.25-6.25,14.73-9.76,23.57-9.76h0c8.84,0,17.32,3.51,23.57,9.77l59.76,59.77,143.1-143.09c13.02-13.02,34.12-13.02,47.14,0,13.02,13.02,13.02,34.12,0,47.14Z"/>
</svg>